<svg xmlns="http://www.w3.org/2000/svg" xmlns:svg="http://www.w3.org/2000/svg" xmlns:xlink="http://www.w3.org/1999/xlink" id="svg839" width="64" height="64" version="1.1" viewBox="0 0 16.933 16.933"><defs id="defs833"><linearGradient id="linearGradient1525"><stop style="stop-color:#5f5fd3;stop-opacity:1" id="stop1521" offset="0"/><stop style="stop-color:#8d5fd3;stop-opacity:1" id="stop1523" offset="1"/></linearGradient><clipPath id="_clip1"><path id="path4" d="M 782,389.065 C 782,379.095 772.59,371 761,371 h -42 c -11.59,0 -21,8.095 -21,18.065 v 144.523 c 0,9.971 9.41,18.065 21,18.065 h 42 c 11.59,0 21,-8.094 21,-18.065 z"/></clipPath><clipPath id="clipPath1397"><path id="path1395" d="M 782,389.065 C 782,379.095 772.59,371 761,371 h -42 c -11.59,0 -21,8.095 -21,18.065 v 144.523 c 0,9.971 9.41,18.065 21,18.065 h 42 c 11.59,0 21,-8.094 21,-18.065 z"/></clipPath><linearGradient id="linearGradient1527" x1="6.142" x2="10.213" y1="297" y2="288.286" gradientUnits="userSpaceOnUse" xlink:href="#linearGradient1525"/></defs><metadata id="metadata836"/><g id="layer1" transform="translate(0,-280.06665)"><rect style="opacity:1;fill:url(#linearGradient1527);fill-opacity:1;stroke:none;stroke-width:.25955623;stroke-linecap:round;stroke-linejoin:round;stroke-miterlimit:4;stroke-dasharray:none;stroke-opacity:1" id="rect1519" width="16.933" height="16.933" x="0" y="280.067" ry=".167"/><path style="opacity:.22000002;fill:#fff;fill-opacity:1;stroke:none;stroke-width:.25955623;stroke-linecap:round;stroke-linejoin:round;stroke-miterlimit:4;stroke-dasharray:none;stroke-opacity:1" id="rect1542" d="m 9.905854,280.06665 -9.68467855,16.77469 c 0.004508,0.0885 0.0762661,0.15864 0.16588052,0.15864 H 1.9528522 L 11.729,280.06665 Z m 3.160014,0 -9.7766636,16.93333 h 1.0945071 l 9.7761475,-16.93333 z m 3.038575,0 -9.7761472,16.93333 h 0.6071976 l 9.7766636,-16.93333 z"/><g id="g1497" transform="matrix(1.0119908,0,0,1.0119908,3.2611903,-0.01978024)" style="stroke-width:1.04486346"><g id="g1483" transform="translate(-0.48442605)" style="stroke-width:1.04486346"><path style="opacity:1;fill:#b7bec8;fill-opacity:1;stroke:#939dac;stroke-width:.24960057;stroke-miterlimit:4;stroke-dasharray:none;stroke-opacity:1" id="path1434" d="m 7.1441754,286.28934 c -0.8987875,0 -1.7760709,1.08611 -1.975802,1.43205 -0.3994608,0.69189 1.1986223,3.45955 1.997544,3.45955 0.7989226,0 2.3965286,-2.76766 1.9970676,-3.45955 -0.19973,-0.34594 -1.120022,-1.43205 -2.0188096,-1.43205 z"/><rect style="opacity:1;fill:#ac9d93;fill-opacity:1;stroke:#917c6f;stroke-width:.27120084;stroke-linecap:round;stroke-linejoin:round;stroke-miterlimit:4;stroke-dasharray:none;stroke-opacity:1" id="rect1479" width="2.589" height=".702" x="5.871" y="288.28" ry=".201"/></g><path d="m 6.6335794,284.84194 c 0,-0.50467 -0.4097646,-0.91444 -0.9144587,-0.91444 H 3.8902034 c -0.504694,0 -0.9144586,0.40977 -0.9144586,0.91444 v 7.31568 c 0,0.50472 0.4097646,0.91444 0.9144586,0.91444 h 1.8289173 c 0.5046941,0 0.9144587,-0.40972 0.9144587,-0.91444 z" style="clip-rule:evenodd;fill:#5dc4f8;fill-rule:evenodd;stroke-width:.04905583;stroke-linecap:round;stroke-linejoin:bevel;stroke-miterlimit:1.5" id="path2"/><g id="g11" clip-path="url(#_clip1)" transform="matrix(0.04354565,0,0,0.05061944,-27.419119,265.14769)" style="clip-rule:evenodd;fill-rule:evenodd;stroke-width:1.04486346;stroke-linecap:round;stroke-linejoin:bevel;stroke-miterlimit:1.5"><g id="g9" transform="translate(0,42.5826)" style="stroke-width:1.04486346"><path d="M 782,389.065 C 782,379.095 772.59,371 761,371 h -42 c -11.59,0 -21,8.095 -21,18.065 v 144.523 c 0,9.971 9.41,18.065 21,18.065 h 42 c 11.59,0 21,-8.094 21,-18.065 z" style="fill:#2c9de6;stroke-width:1.04486346" id="path7"/></g></g><path d="m 6.6335794,284.84194 c 0,-0.50467 -0.4097646,-0.91444 -0.9144587,-0.91444 H 3.8902034 c -0.504694,0 -0.9144586,0.40977 -0.9144586,0.91444 v 7.31568 c 0,0.50472 0.4097646,0.91444 0.9144586,0.91444 h 1.8289173 c 0.5046941,0 0.9144587,-0.40972 0.9144587,-0.91444 z" style="clip-rule:evenodd;fill:none;fill-rule:evenodd;stroke:#2267c2;stroke-width:.27120087;stroke-linecap:round;stroke-linejoin:bevel;stroke-miterlimit:1.5;stroke-dasharray:none" id="path13"/><g id="g1475" transform="rotate(-15,7.362507,255.90714)" style="stroke-width:1.04486346"><rect style="opacity:1;fill:#ac9d93;fill-opacity:1;stroke:#917c6f;stroke-width:.27120084;stroke-linecap:round;stroke-linejoin:round;stroke-miterlimit:4;stroke-dasharray:none;stroke-opacity:1" id="rect1470" width=".673" height="1.571" x="-6.089" y="286.169" ry=".201"/><path style="opacity:1;fill:#b7bec8;fill-opacity:1;stroke:#939dac;stroke-width:1.02501094;stroke-linecap:round;stroke-linejoin:round;stroke-miterlimit:4;stroke-dasharray:none;stroke-opacity:1" id="rect1464" d="M -23.125,8.0744882 V 22.169922 c 0,0.420661 0.339319,0.757812 0.759766,0.757812 h 1.25 c 0.420446,0 0.757812,-0.33734 0.757812,-0.757812 V 8.0744882 l -1.382812,-4.8669085 z" transform="matrix(0.26458333,0,0,0.26458333,0,280.06665)"/><rect style="opacity:1;fill:#b7bec8;fill-opacity:1;stroke:#939dac;stroke-width:.27120084;stroke-linecap:round;stroke-linejoin:round;stroke-miterlimit:4;stroke-dasharray:none;stroke-opacity:1" id="rect1468" width="1.819" height=".697" x="-6.662" y="285.732" ry=".201"/></g></g><path style="opacity:1;fill:#f9f9f9;fill-opacity:1;stroke:#b7bec8;stroke-width:.25955626;stroke-linecap:round;stroke-linejoin:round;stroke-miterlimit:4;stroke-dasharray:none;stroke-opacity:1" id="rect1499" d="m 3.5834747,281.49299 c -0.3924424,0 -0.7085566,0.31542 -0.7085566,0.70699 v 2.48726 c 0,0.39157 0.3161142,0.70651 0.7085566,0.70651 H 7.936716 v 1.33509 l 1.1309286,-1.33509 h 5.6903564 c 0.392442,0 0.70808,-0.31494 0.70808,-0.70651 v -2.48726 c 0,-0.39157 -0.315638,-0.70699 -0.70808,-0.70699 z"/><rect style="opacity:1;fill:#939dac;fill-opacity:1;stroke:none;stroke-width:.25955623;stroke-linecap:round;stroke-linejoin:round;stroke-miterlimit:4;stroke-dasharray:none;stroke-opacity:1" id="rect1507" width="4.956" height=".307" x="3.552" y="282.246" ry=".154"/><rect id="rect1509" width="10.959" height=".307" x="3.552" y="283.029" ry=".154" style="opacity:1;fill:#939dac;fill-opacity:1;stroke:none;stroke-width:.25955623;stroke-linecap:round;stroke-linejoin:round;stroke-miterlimit:4;stroke-dasharray:none;stroke-opacity:1"/><rect id="rect1511" width="2.755" height=".307" x="8.909" y="282.246" ry=".131" style="opacity:1;fill:#939dac;fill-opacity:1;stroke:none;stroke-width:.25955623;stroke-linecap:round;stroke-linejoin:round;stroke-miterlimit:4;stroke-dasharray:none;stroke-opacity:1"/><rect style="opacity:1;fill:#939dac;fill-opacity:1;stroke:none;stroke-width:.25955623;stroke-linecap:round;stroke-linejoin:round;stroke-miterlimit:4;stroke-dasharray:none;stroke-opacity:1" id="rect1513" width="2.755" height=".307" x="8.909" y="282.246" ry=".131"/><rect id="rect1515" width="2.755" height=".307" x="3.552" y="283.766" ry=".131" style="opacity:1;fill:#939dac;fill-opacity:1;stroke:none;stroke-width:.25955623;stroke-linecap:round;stroke-linejoin:round;stroke-miterlimit:4;stroke-dasharray:none;stroke-opacity:1"/><rect id="rect1517" width="4.956" height=".307" x="7.047" y="283.766" ry=".154" style="opacity:1;fill:#939dac;fill-opacity:1;stroke:none;stroke-width:.25955623;stroke-linecap:round;stroke-linejoin:round;stroke-miterlimit:4;stroke-dasharray:none;stroke-opacity:1"/><path style="opacity:.22000002;fill:#fff;fill-opacity:1;stroke:none;stroke-width:.25955623;stroke-linecap:round;stroke-linejoin:round;stroke-miterlimit:4;stroke-dasharray:none;stroke-opacity:1" id="path1550" d="m 14.552083,292.8895 c -0.03998,0.04 -0.400284,-0.12712 -0.456134,-0.11827 -0.05585,0.009 -0.346879,0.2791 -0.397262,0.25343 -0.05038,-0.0257 -0.0028,-0.41997 -0.02847,-0.47035 -0.02567,-0.0504 -0.372638,-0.24366 -0.363792,-0.29951 0.0088,-0.0558 0.398554,-0.13244 0.438538,-0.17242 0.03998,-0.04 0.116576,-0.42969 0.172426,-0.43854 0.05585,-0.009 0.249119,0.33812 0.299502,0.36379 0.05038,0.0257 0.444686,-0.0219 0.470358,0.0285 0.02567,0.0504 -0.24459,0.34141 -0.253436,0.39726 -0.0088,0.0559 0.158255,0.41615 0.118271,0.45614 z" transform="rotate(45,14.033142,292.37056)"/><path id="path1552" d="m 14.552083,292.8895 c -0.03998,0.04 -0.400284,-0.12712 -0.456134,-0.11827 -0.05585,0.009 -0.346879,0.2791 -0.397262,0.25343 -0.05038,-0.0257 -0.0028,-0.41997 -0.02847,-0.47035 -0.02567,-0.0504 -0.372638,-0.24366 -0.363792,-0.29951 0.0088,-0.0558 0.398554,-0.13244 0.438538,-0.17242 0.03998,-0.04 0.116576,-0.42969 0.172426,-0.43854 0.05585,-0.009 0.249119,0.33812 0.299502,0.36379 0.05038,0.0257 0.444686,-0.0219 0.470358,0.0285 0.02567,0.0504 -0.24459,0.34141 -0.253436,0.39726 -0.0088,0.0559 0.158255,0.41615 0.118271,0.45614 z" transform="matrix(0.50454017,0.50454017,-0.50454017,0.50454017,142.3716,132.29856)" style="opacity:.22000002;fill:#fff;fill-opacity:1;stroke:none;stroke-width:.36376485;stroke-linecap:round;stroke-linejoin:round;stroke-miterlimit:4;stroke-dasharray:none;stroke-opacity:1"/><path style="opacity:.22000002;fill:#fff;fill-opacity:1;stroke:none;stroke-width:.36376485;stroke-linecap:round;stroke-linejoin:round;stroke-miterlimit:4;stroke-dasharray:none;stroke-opacity:1" id="path1554" d="m 14.552083,292.8895 c -0.03998,0.04 -0.400284,-0.12712 -0.456134,-0.11827 -0.05585,0.009 -0.346879,0.2791 -0.397262,0.25343 -0.05038,-0.0257 -0.0028,-0.41997 -0.02847,-0.47035 -0.02567,-0.0504 -0.372638,-0.24366 -0.363792,-0.29951 0.0088,-0.0558 0.398554,-0.13244 0.438538,-0.17242 0.03998,-0.04 0.116576,-0.42969 0.172426,-0.43854 0.05585,-0.009 0.249119,0.33812 0.299502,0.36379 0.05038,0.0257 0.444686,-0.0219 0.470358,0.0285 0.02567,0.0504 -0.24459,0.34141 -0.253436,0.39726 -0.0088,0.0559 0.158255,0.41615 0.118271,0.45614 z" transform="matrix(0.50454017,0.50454017,-0.50454017,0.50454017,142.98966,133.81866)"/><path id="path1556" d="m 14.552083,292.8895 c -0.03998,0.04 -0.400284,-0.12712 -0.456134,-0.11827 -0.05585,0.009 -0.346879,0.2791 -0.397262,0.25343 -0.05038,-0.0257 -0.0028,-0.41997 -0.02847,-0.47035 -0.02567,-0.0504 -0.372638,-0.24366 -0.363792,-0.29951 0.0088,-0.0558 0.398554,-0.13244 0.438538,-0.17242 0.03998,-0.04 0.116576,-0.42969 0.172426,-0.43854 0.05585,-0.009 0.249119,0.33812 0.299502,0.36379 0.05038,0.0257 0.444686,-0.0219 0.470358,0.0285 0.02567,0.0504 -0.24459,0.34141 -0.253436,0.39726 -0.0088,0.0559 0.158255,0.41615 0.118271,0.45614 z" transform="matrix(0.21352693,0.36983949,-0.36983949,0.21352693,117.84722,226.88973)" style="opacity:.22000002;fill:#fff;fill-opacity:1;stroke:none;stroke-width:.60778338;stroke-linecap:round;stroke-linejoin:round;stroke-miterlimit:4;stroke-dasharray:none;stroke-opacity:1"/><path style="opacity:.22000002;fill:#fff;fill-opacity:1;stroke:none;stroke-width:.60778338;stroke-linecap:round;stroke-linejoin:round;stroke-miterlimit:4;stroke-dasharray:none;stroke-opacity:1" id="path1558" d="m 14.552083,292.8895 c -0.03998,0.04 -0.400284,-0.12712 -0.456134,-0.11827 -0.05585,0.009 -0.346879,0.2791 -0.397262,0.25343 -0.05038,-0.0257 -0.0028,-0.41997 -0.02847,-0.47035 -0.02567,-0.0504 -0.372638,-0.24366 -0.363792,-0.29951 0.0088,-0.0558 0.398554,-0.13244 0.438538,-0.17242 0.03998,-0.04 0.116576,-0.42969 0.172426,-0.43854 0.05585,-0.009 0.249119,0.33812 0.299502,0.36379 0.05038,0.0257 0.444686,-0.0219 0.470358,0.0285 0.02567,0.0504 -0.24459,0.34141 -0.253436,0.39726 -0.0088,0.0559 0.158255,0.41615 0.118271,0.45614 z" transform="matrix(0.21352693,0.36983949,-0.36983949,0.21352693,108.32694,219.47195)"/><rect id="rect1567" width="16.933" height="16.933" x="0" y="280.067" ry=".167" style="opacity:1;fill:none;fill-opacity:1;stroke:#8787de;stroke-width:.52916667;stroke-linecap:round;stroke-linejoin:round;stroke-miterlimit:4;stroke-dasharray:none;stroke-opacity:1;paint-order:normal"/></g></svg>